<?xml version="1.0"?><svg xmlns="http://www.w3.org/2000/svg" xmlns:xlink="http://www.w3.org/1999/xlink" version="1.1" viewBox="0 0 512 512" style="enable-background:new 0 0 512 512;" xml:space="preserve"><g id="_x30_6_x2C__atv_x2C__bike_x2C__adventure_sports_x2C__motorcycle_x2C__automobile_x2C__vehicle"><g><polygon style="fill:#FFFFFF;" points="383,402.333 371.39,417.35 341,415 318.28,397.13 312.79,381 323.76,368.91 371.39,387.05       "/><polygon style="fill:#FFFFFF;" points="188.59,368.89 199.57,378.333 194.08,397.13 165.333,417.35 140.98,417.35     132.667,406.833 140.98,387.04   "/><polygon style="fill:#FFFFFF;" points="194.08,397.13 205.5,409 199.57,425.36 140.98,447.67 131.333,434.833 140.98,417.35   "/><polygon style="fill:#FFFFFF;" points="381.833,433.24 371.39,447.68 312.79,425.36 305.667,408.667 318.28,397.13 371.39,417.35       "/><path style="fill:#FFFFFF;" d="M183.42,342.29c12.504,64.325,8.637,44.439,18.12,93.2c1.8,9.26,9.91,15.94,19.34,15.94    c8.562,0,62.009,0,70.6,0c9.43,0,17.54-6.68,19.34-15.94l1.97-10.13c0.415-2.135-3.04,15.634,16.15-83.07l-75.607-14.957    L183.42,342.29z"/><path style="fill:#FFFFFF;" d="M211.53,21v21.38H165.9c-8.28,0-15-6.72-15-15V21c0-8.28,6.72-15,15-15h30.63    C204.82,6,211.53,12.72,211.53,21z"/><path style="fill:#FFFFFF;" d="M361.46,21v6.38c0,8.28-6.71,15-15,15h-45.63V21c0-8.28,6.72-15,15-15h30.63    C354.75,6,361.46,12.72,361.46,21z"/><path style="fill:#FFFFFF;" d="M353.01,75.5c-19.9,0-36.72,14.25-39.99,33.88c-1.635,9.894-10.392,12.427-13.35,14.83    l-19.41,12.14l29.41,10.22c3.59-3.078,23.424-10.074,27.28-33.21c1.31-7.88,8.07-13.61,16.06-13.61h40.5V75.5H353.01z"/><path style="fill:#FFFFFF;" d="M206.41,120.51c-3.96-2.47-6.67-6.53-7.43-11.13c-3.27-19.63-20.09-33.88-39.99-33.88h-40.5v24.25    h40.5c7.99,0,14.75,5.73,16.06,13.61c3.861,23.165,23.698,30.094,27.47,33.32l29.26-10.3    C230.797,135.765,209.181,122.243,206.41,120.51z"/><path style="fill:#9DCAFC;" d="M176.9,182.28c7.468-27.402,32.341-46.15,60.41-46.15c48.928,0.083,31.271-0.195,42.95,0.22    c26.109,2.168,48.25,20.434,55.2,45.93c7.688,28.162,5.036,18.449,5.61,20.55H171.29    C171.864,200.729,169.212,210.442,176.9,182.28z"/><path style="fill:#FFFFFF;" d="M140.98,486.13c0,10.98-8.9,19.87-19.87,19.87H75.96c-10.98,0-19.87-8.89-19.87-19.87    c0-35.246,0-70.495,0-105.78c0-10.98,8.89-19.87,19.87-19.87h45.15c10.97,0,19.87,8.89,19.87,19.87    C140.98,413.531,140.98,454.314,140.98,486.13z"/><path style="fill:#FFFFFF;" d="M456.27,486.13c0,10.98-8.89,19.87-19.86,19.87h-45.16c-10.97,0-19.86-8.89-19.86-19.87    c0-30.336,0-51.367,0-105.78c0-10.98,8.89-19.87,19.86-19.87h45.16c10.97,0,19.86,8.89,19.86,19.87    C456.27,396.279,456.27,470.185,456.27,486.13z"/><path style="fill:#9DCAFC;" d="M286,366l-2.74,30.1c-1.28,14.1-13.1,24.9-27.26,24.9s-25.98-10.8-27.26-24.9L226,366H286z"/><path style="fill:#FFFFFF;" d="M439.91,217.41l-10.92-32.77h-92.88l4.96,18.19H171.29l4.96-18.19H83.38l-11.49,34.47    c-4.35,13.03-4.22,27.13,0.35,40.09l14.79,41.87c8.7,24.7,32.05,41.22,58.24,41.22c33.535,0,184.593,0,218.1,0    c25.03,0,47.59-15.11,57.12-38.25l17.93-43.58C444.07,246.75,444.6,231.47,439.91,217.41z"/><polygon style="fill:#FFFFFF;" points="274.37,281.66 281.5,301.625 274.37,318.04 237.99,318.04 232.375,300.875 237.99,281.66       "/><path style="fill:#9DCAFC;" d="M395.64,231.43v22.83c0,15.56-12.61,28.17-28.18,28.17h-22.82l-19.13-19.12c0-0.233,0-3.805,0-3.7    c0-15.57,12.61-28.18,28.18-28.18H395.64z"/><path style="fill:#9DCAFC;" d="M186.85,259.61v3.7l-19.12,19.12H144.9c-15.57,0-28.18-12.61-28.18-28.17v-22.83h41.95    C174.24,231.43,186.85,244.04,186.85,259.61z"/><path style="fill:#9DCAFC;" d="M468.4,84.44v6.38c0,8.28-6.72,15-15,15h-69.89c0-10.767,0-25.614,0-36.38h69.89    C461.68,69.44,468.4,76.15,468.4,84.44z"/><path style="fill:#9DCAFC;" d="M128.49,105.82H58.6c-8.28,0-15-6.72-15-15v-6.38c0-8.29,6.72-15,15-15h69.89    C128.49,77.048,128.49,93.048,128.49,105.82z"/><path style="fill:#FFFFFF;" d="M304.69,288.36v22.98c0,3.7-3,6.7-6.7,6.7h-23.62v-36.38h23.62    C301.69,281.66,304.69,284.65,304.69,288.36z"/><path style="fill:#FFFFFF;" d="M237.99,281.66v36.38h-23.62c-3.7,0-6.7-3-6.7-6.7v-22.98c0-3.71,3-6.7,6.7-6.7H237.99z"/><g><path style="fill:#4269A7;" d="M453.4,64.437h-64.888v-1.063c0-2.762-2.238-5-5-5s-5,2.238-5,5c0,0.343,0,7.364,0,7.127h-25.499     c-22.354,0-41.248,16.007-44.927,38.063c-0.515,3.103-2.313,5.839-4.938,7.563l-7.212-36.045     c-1.287-6.405-0.385-13.155,2.541-19.008c0.115-0.232,1.308-3.127,5.693-13.693h42.294c11.028,0,20-8.972,20-20V21     c0-11.028-8.972-20-20-20H315.83c-11.028,0-20,8.972-20,20v20.389l-6.379,15.376c-3.852,7.796-5.03,16.769-3.319,25.283     l7.956,39.759l-15.123,9.454c-3.611-0.21-42.271-0.207-45.888,0.02l-14.836-9.272l7.991-39.958     c1.712-8.517,0.533-17.489-3.319-25.287l-6.379-15.376V21c0-11.028-8.972-20-20-20h-30.634c-11.028,0-20,8.972-20,20v6.38     c0,11.028,8.972,20,20,20h42.294c4.385,10.567,5.578,13.462,5.693,13.693c2.927,5.854,3.829,12.604,2.54,19.013l-7.251,36.258     c-0.111-0.108-4.385-2.503-5.264-7.783c-3.677-22.054-22.57-38.061-44.926-38.061h-25.498c0-0.136,0-7.541,0-7.127     c0-2.762-2.238-5-5-5s-5,2.238-5,5v1.063H58.6c-11.028,0-20,8.972-20,20v6.381c0,11.028,8.972,20,20,20h64.888v1.063     c0,2.762,2.238,5,5,5s5-2.238,5-5v-6.063v-1.063h25.498c5.545,0,10.229,3.964,11.136,9.426     c3.129,18.831,15.676,28.092,23.6,32.942c-9.893,8.346-17.426,19.531-21.255,32.519h-89.09c-2.152,0-4.063,1.377-4.743,3.419     l-11.483,34.462c-4.678,14.006-4.543,29.397,0.379,43.339l14.781,41.872c9.394,26.65,34.696,44.557,62.961,44.557h34.029     l3.584,18.432l-36.92,14.065c-0.3-13.453-11.329-24.307-24.852-24.307H75.957c-13.712,0-24.867,11.155-24.867,24.867v105.788     C51.09,499.845,62.245,511,75.957,511h45.154c13.711,0,24.866-11.155,24.866-24.866v-35.017l49.822-18.971l0.836,4.301     c2.252,11.579,12.447,19.983,24.243,19.983h70.606c11.795,0,21.99-8.404,24.242-19.983l0.836-4.3l49.822,18.982v35.005     c0,13.711,11.155,24.866,24.867,24.866h45.153c13.712,0,24.867-11.155,24.867-24.866V380.346     c0-13.712-11.155-24.867-24.867-24.867h-45.153c-13.528,0-24.56,10.861-24.853,24.32l-36.922-14.066l3.586-18.443h30.306     c27.159,0,51.394-16.229,61.741-41.346l17.934-43.58c6.102-14.797,6.675-31.323,1.612-46.538l-10.926-32.767     c-0.681-2.041-2.591-3.418-4.743-3.418h-89.091c-3.852-13.067-11.453-24.312-21.436-32.674     c0.787-0.737,19.544-9.481,23.417-32.787c0.907-5.462,5.59-9.426,11.135-9.426h25.499c0,0.136,0,7.541,0,7.127     c0,2.762,2.238,5,5,5s5-2.238,5-5v-1.063H453.4c11.028,0,20-8.972,20-20v-6.381C473.4,73.408,464.429,64.437,453.4,64.437z      M305.83,21c0-5.514,4.486-10,10-10h30.634c5.514,0,10,4.486,10,10v6.38c0,5.514-4.486,10-10,10H305.83V21z M155.899,27.38V21     c0-5.514,4.486-10,10-10h30.634c5.514,0,10,4.486,10,10v16.38h-40.634C160.386,37.38,155.899,32.894,155.899,27.38z      M58.6,100.817c-5.514,0-10-4.486-10-10v-6.381c0-5.514,4.486-10,10-10h64.888c0,6.388,0,19.985,0,26.381H58.6z M179.986,112.541     c-1.713-10.307-10.545-17.787-21.001-17.787h-25.498V80.5h25.498c17.446,0,32.192,12.493,35.062,29.703     c1.002,6.021,4.545,11.325,9.717,14.552l14.58,9.112c-5.574,1.638-10.877,3.982-15.795,6.939     C200.023,138.603,183.293,132.434,179.986,112.541z M188.372,393.949l-42.395,16.149v-19.616l38.843-14.797L188.372,393.949z      M121.111,501H75.957c-8.198,0-14.867-6.669-14.867-14.866V474.62h13.19c2.762,0,5-2.238,5-5s-2.238-5-5-5H61.09v-26.381h13.19     c2.762,0,5-2.238,5-5s-2.238-5-5-5H61.09v-26.38h13.19c2.762,0,5-2.238,5-5s-2.238-5-5-5H61.09v-11.514     c0-8.198,6.669-14.867,14.867-14.867h45.154c8.197,0,14.866,6.669,14.866,14.867v11.514h-13.19c-2.762,0-5,2.238-5,5s2.238,5,5,5     h13.19v26.38h-13.19c-2.762,0-5,2.238-5,5s2.238,5,5,5h13.19v26.381h-13.19c-2.762,0-5,2.238-5,5s2.238,5,5,5h13.19v11.514     C135.978,494.331,129.309,501,121.111,501z M145.978,440.416V420.8l44.332-16.886l3.552,18.269L145.978,440.416z      M318.501,422.183l3.552-18.269l44.332,16.887v19.627L318.501,422.183z M391.253,365.479h45.153     c8.198,0,14.867,6.669,14.867,14.867v11.514h-13.19c-2.762,0-5,2.238-5,5s2.238,5,5,5h13.19v26.38h-13.19c-2.762,0-5,2.238-5,5     s2.238,5,5,5h13.19v26.381h-13.19c-2.762,0-5,2.238-5,5s2.238,5,5,5h13.19v11.514c0,8.197-6.669,14.866-14.867,14.866h-45.153     c-8.198,0-14.867-6.669-14.867-14.866V474.62h13.19c2.762,0,5-2.238,5-5s-2.238-5-5-5h-13.19v-26.381h13.19c2.762,0,5-2.238,5-5     s-2.238-5-5-5h-13.19v-26.38h13.19c2.762,0,5-2.238,5-5s-2.238-5-5-5h-13.19v-11.514     C376.386,372.147,383.055,365.479,391.253,365.479z M366.386,390.495v19.603l-42.395-16.149l3.549-18.253L366.386,390.495z      M305.911,434.538c-1.34,6.891-7.406,11.892-14.426,11.892h-70.606c-7.02,0-13.087-5.001-14.427-11.892     c-1.835-9.434-14.341-73.752-16.966-87.249h133.391C321.137,356.236,308.566,420.884,305.911,434.538z M435.17,218.985     c4.304,12.936,3.817,26.986-1.371,39.569l-17.935,43.582c-8.798,21.354-29.402,35.152-52.494,35.152c-32.535,0-183.544,0-218.1,0     c-24.031,0-45.543-15.224-53.53-37.883l-14.782-41.874c-4.185-11.854-4.3-24.938-0.323-36.846l10.346-31.046h82.728     l-3.238,11.875c-0.868,3.191,1.54,6.315,4.824,6.315h169.774c3.284,0,5.693-3.125,4.824-6.315l-3.239-11.875h82.73     L435.17,218.985z M330.64,183.594l3.884,14.237H177.841l3.883-14.237c6.818-25,29.678-42.46,55.591-42.46h37.734     C300.962,141.134,323.821,158.594,330.64,183.594z M353.014,94.754c-10.456,0-19.287,7.48-21,17.787     c-3.297,19.835-19.895,25.98-22.38,28.154c-4.94-2.949-10.267-5.276-15.863-6.897l14.462-9.041     c5.176-3.229,8.719-8.533,9.719-14.552c2.871-17.212,17.616-29.705,35.063-29.705h25.499v14.254H353.014z M463.4,90.817     c0,5.514-4.486,10-10,10h-64.888c0-6.388,0-19.985,0-26.381H453.4c5.514,0,10,4.486,10,10V90.817z"/><path style="fill:#4269A7;" d="M297.989,276.655h-83.614c-6.451,0-11.7,5.249-11.7,11.7v22.979c0,6.451,5.249,11.7,11.7,11.7     h83.614c6.451,0,11.699-5.249,11.699-11.7v-22.979C309.688,281.904,304.44,276.655,297.989,276.655z M269.372,286.655v26.38     h-26.381v-26.38H269.372z M212.675,311.335v-22.979c0-0.938,0.763-1.7,1.7-1.7h18.616v26.38h-18.616     C213.437,313.035,212.675,312.272,212.675,311.335z M299.688,311.335c0,0.938-0.763,1.7-1.699,1.7h-18.617v-26.38h18.617     c0.937,0,1.699,0.763,1.699,1.7V311.335z"/><path style="fill:#4269A7;" d="M321.379,252.105l-11.457-11.457c-1.951-1.953-5.119-1.953-7.07,0     c-1.953,1.952-1.953,5.118,0,7.07c20.543,20.543,35.117,35.118,57.377,57.377c1.951,1.953,5.119,1.953,7.07,0     c1.953-1.952,1.953-5.118,0-7.07l-10.591-10.591h10.753c18.295,0,33.179-14.884,33.179-33.179v-22.823c0-2.762-2.238-5-5-5     H353.69C337.978,226.433,324.791,237.415,321.379,252.105z M353.69,236.433h36.949v17.823c0,12.781-10.397,23.179-23.179,23.179     h-20.753l-16.196-16.196v-1.627C330.512,246.83,340.909,236.433,353.69,236.433z"/><path style="fill:#4269A7;" d="M209.512,247.719c1.953-1.952,1.953-5.118,0-7.07c-1.951-1.953-5.119-1.953-7.07,0l-11.457,11.457     c-3.412-14.69-16.599-25.673-32.312-25.673h-41.949c-2.762,0-5,2.238-5,5v22.823c0,18.295,14.884,33.179,33.179,33.179h10.754     l-10.591,10.591c-1.953,1.952-1.953,5.118,0,7.07c1.951,1.953,5.119,1.953,7.07,0c12.172-12.172,26.075-26.076,38.248-38.248     C201.689,255.542,198.214,259.017,209.512,247.719z M144.902,277.435c-12.781,0-23.179-10.397-23.179-23.179v-17.823h36.949     c12.781,0,23.179,10.397,23.179,23.179v1.627l-16.196,16.196H144.902z"/><path style="fill:#4269A7;" d="M223.757,396.556C225.283,413.342,239.145,426,256,426s30.717-12.658,32.243-29.444l2.736-30.103     C291.245,363.53,288.945,361,286,361h-60c-2.945,0-5.245,2.53-4.979,5.453L223.757,396.556z M280.524,371l-2.24,24.649     C277.229,407.251,267.649,416,256,416s-21.229-8.749-22.284-20.351L231.476,371H280.524z"/></g></g></g><g id="Layer_1"/></svg>